<svg width="337" height="82" viewBox="0 0 337 82" fill="none" xmlns="http://www.w3.org/2000/svg">
<g filter="url(#filter0_d_71_540)">
<path d="M4.18932 72.6819V1.20943H57.2831V15.5039H19.5048V29.2879H49.1149V43.0719H19.5048V58.3874H58.3042V72.6819H4.18932ZM97.618 72.6819V66.5557H97.1075C95.9844 67.883 94.7591 69.1083 93.3297 70.1293C90.8792 72.0693 87.1013 73.7029 82.3025 73.7029C73.1132 73.7029 66.987 67.5767 66.987 59.4084C66.987 51.2401 72.5005 45.0118 81.792 43.3782L97.618 40.5193C97.1075 36.9457 94.1465 33.8826 88.9392 33.8826C85.3656 33.8826 82.6088 35.2099 80.6688 36.7414C79.5457 37.5583 78.5247 38.4772 77.7078 39.4982L69.5395 31.33C70.969 29.5942 72.7048 27.9605 74.7468 26.5311C78.3204 24.0806 83.3235 21.6301 89.9602 21.6301C102.723 21.6301 111.402 30.411 111.402 41.5403V72.6819H97.618ZM97.618 51.2401V50.2191L86.3866 52.2612C82.813 52.9759 80.7709 54.8138 80.7709 57.3664C80.7709 60.5316 82.813 62.4715 86.8971 62.4715C93.0234 62.4715 97.618 57.8769 97.618 51.2401ZM119.574 64.5136L127.743 55.8348C128.764 56.9579 129.989 57.8769 131.316 58.6937C133.665 60.2253 136.932 61.4505 141.016 61.4505C145.611 61.4505 147.142 59.9189 147.142 57.8769C147.142 52.2612 121.616 53.2822 121.616 36.9457C121.616 28.7774 128.764 21.6301 141.526 21.6301C147.959 21.6301 152.758 23.5701 156.025 25.5101C157.965 26.6332 159.599 27.9605 160.926 29.2879L152.758 37.9667C151.941 37.252 150.92 36.5372 149.797 35.9246C147.857 34.8015 145.1 33.8826 141.526 33.8826C137.953 33.8826 136.421 35.4141 136.421 36.9457C136.421 42.5614 161.947 41.5403 161.947 57.8769C161.947 66.4536 154.8 73.7029 141.016 73.7029C134.073 73.7029 128.764 71.4566 125.088 69.1083C122.944 67.7809 121.106 66.2494 119.574 64.5136ZM171.144 72.6819V22.6512H184.928V72.6819H171.144ZM170.123 8.35667C170.123 4.27254 173.697 0.698913 178.088 0.698913C182.478 0.698913 185.95 4.27254 185.95 8.35667C185.95 12.4408 182.376 16.0144 177.985 16.0144C173.595 16.0144 170.123 12.4408 170.123 8.35667ZM235.944 55.8348L243.092 65.5346C241.56 67.0662 239.722 68.3935 237.578 69.6188C233.902 71.6608 228.593 73.7029 221.65 73.7029C206.845 73.7029 195.103 61.961 195.103 47.6665C195.103 33.372 206.845 21.6301 221.139 21.6301C234.923 21.6301 246.155 32.8615 246.155 46.6455C246.155 48.5855 245.95 49.9128 245.848 51.0359L245.644 52.7717H209.397C210.929 57.3664 215.013 61.4505 222.671 61.4505C227.061 61.4505 230.227 60.2253 232.575 58.6937C233.902 57.8769 235.025 56.9579 235.944 55.8348ZM209.397 42.5614H231.86C230.329 37.9667 226.347 33.8826 220.629 33.8826C214.911 33.8826 210.929 37.9667 209.397 42.5614ZM251.292 64.5136L259.46 55.8348C260.481 56.9579 261.706 57.8769 263.034 58.6937C265.382 60.2253 268.649 61.4505 272.733 61.4505C277.328 61.4505 278.86 59.9189 278.86 57.8769C278.86 52.2612 253.334 53.2822 253.334 36.9457C253.334 28.7774 260.481 21.6301 273.244 21.6301C279.677 21.6301 284.475 23.5701 287.743 25.5101C289.683 26.6332 291.316 27.9605 292.644 29.2879L284.475 37.9667C283.659 37.252 282.638 36.5372 281.514 35.9246C279.574 34.8015 276.818 33.8826 273.244 33.8826C269.67 33.8826 268.139 35.4141 268.139 36.9457C268.139 42.5614 293.665 41.5403 293.665 57.8769C293.665 66.4536 286.517 73.7029 272.733 73.7029C265.79 73.7029 260.481 71.4566 256.805 69.1083C254.661 67.7809 252.823 66.2494 251.292 64.5136ZM306.946 55.3243V36.4351H298.267V23.6722H302.862C306.64 23.6722 308.478 21.6301 308.478 17.546V8.35667H320.73V23.6722H331.962V36.4351H320.73V53.2822C320.73 57.8769 323.283 60.4295 327.367 60.4295C328.898 60.4295 330.226 60.2253 331.349 59.9189C331.962 59.8168 332.472 59.6126 332.983 59.4084V72.1714C332.166 72.4777 331.247 72.6819 330.328 72.9882C328.694 73.3966 326.346 73.7029 323.793 73.7029C313.583 73.7029 306.946 67.1683 306.946 55.3243Z" fill="#2BA643"/>
</g>
<defs>
<filter id="filter0_d_71_540" x="0.468034" y="0.698975" width="336.236" height="80.4467" filterUnits="userSpaceOnUse" color-interpolation-filters="sRGB">
<feFlood flood-opacity="0" result="BackgroundImageFix"/>
<feColorMatrix in="SourceAlpha" type="matrix" values="0 0 0 0 0 0 0 0 0 0 0 0 0 0 0 0 0 0 127 0" result="hardAlpha"/>
<feOffset dy="3.72142"/>
<feGaussianBlur stdDeviation="1.86071"/>
<feComposite in2="hardAlpha" operator="out"/>
<feColorMatrix type="matrix" values="0 0 0 0 0 0 0 0 0 0 0 0 0 0 0 0 0 0 0.9 0"/>
<feBlend mode="normal" in2="BackgroundImageFix" result="effect1_dropShadow_71_540"/>
<feBlend mode="normal" in="SourceGraphic" in2="effect1_dropShadow_71_540" result="shape"/>
</filter>
</defs>
</svg>
