<svg width="88" height="61" viewBox="0 0 88 61" fill="none" xmlns="http://www.w3.org/2000/svg">
<path fill-rule="evenodd" clip-rule="evenodd" d="M33.5966 0C32.517 0 31.5654 0.620042 31.2552 1.52554L29.2111 7.4923H23.4906C21.0941 7.4923 18.9189 8.7189 17.9272 10.6294L13.1334 19.8651C12.5324 19.4879 11.7958 19.2659 11 19.2659H3.66667C1.64157 19.2659 0 20.7035 0 22.4769C0 24.2503 1.64157 25.6879 3.66667 25.6879H10.1111L7.88113 29.9842C7.52009 30.6797 7.33333 31.4348 7.33333 32.1987V43.8835V49.2351V58.8681C7.33333 60.0504 8.42771 61.0087 9.77778 61.0087H19.5556C20.9056 61.0087 22 60.0504 22 58.8681V54.5868H66V58.8681C66 60.0504 67.0944 61.0087 68.4444 61.0087H78.2222C79.5723 61.0087 80.6667 60.0504 80.6667 58.8681V49.2351V43.8835V32.1987C80.6667 31.4348 80.4799 30.6797 80.1189 29.9842L77.8889 25.6879H84.3333C86.3584 25.6879 88 24.2503 88 22.4769C88 20.7035 86.3584 19.2659 84.3333 19.2659H77C76.2042 19.2659 75.4676 19.4879 74.8666 19.8651L70.0728 10.6294C69.0811 8.7189 66.9058 7.4923 64.5094 7.4923H58.7889L56.7448 1.52554C56.4346 0.620042 55.483 0 54.4034 0H33.5966ZM21.2706 11.6316C21.5345 11.0699 22.1594 10.7033 22.853 10.7033H65.147C65.8406 10.7033 66.4655 11.0699 66.7294 11.6316L72.3614 23.6193C72.8248 24.6055 71.9968 25.6879 70.779 25.6879H17.221C16.0032 25.6879 15.1752 24.6055 15.6386 23.6193L21.2706 11.6316ZM17.1111 42.8131C19.8111 42.8131 22 40.8963 22 38.5318C22 36.1674 19.8111 34.2505 17.1111 34.2505C14.4111 34.2505 12.2222 36.1674 12.2222 38.5318C12.2222 40.8963 14.4111 42.8131 17.1111 42.8131ZM75.7778 38.5318C75.7778 40.8963 73.5889 42.8131 70.8889 42.8131C68.1889 42.8131 66 40.8963 66 38.5318C66 36.1674 68.1889 34.2505 70.8889 34.2505C73.5889 34.2505 75.7778 36.1674 75.7778 38.5318ZM35.4444 46.0241C34.7694 46.0241 34.2222 46.5033 34.2222 47.0945V49.2351C34.2222 49.8263 34.7694 50.3054 35.4444 50.3054H52.5556C53.2306 50.3054 53.7778 49.8263 53.7778 49.2351V47.0945C53.7778 46.5033 53.2306 46.0241 52.5556 46.0241H35.4444ZM45.2222 1.07033H48.8889V3.21099H45.2222V6.42197H42.7778V3.21099H39.1111V1.07033H42.7778H45.2222Z" fill="#222222"/>
</svg>
